<?xml version="1.0" ?><svg id="Layer_1" style="enable-background:new 0 0 137.3 139.3;" version="1.1" viewBox="0 0 137.3 139.3" xml:space="preserve" xmlns="http://www.w3.org/2000/svg" xmlns:xlink="http://www.w3.org/1999/xlink"><style type="text/css">
	.st0{fill:#2C8AAA;}
	.st1{opacity:0.19;clip-path:url(#XMLID_39_);fill:#070808;}
	.st2{fill:#215C6D;}
	.st3{fill:none;}
	.st4{fill:#FFFFFF;}
	.st5{fill:#EFEFEF;}
	.st6{fill:#33A0DA;}
	.st7{fill:#22728E;}
</style><g id="XMLID_2660_"><g id="XMLID_2362_"><circle class="st0" cx="68.5" cy="69.6" id="XMLID_2652_" r="66.2"/><g id="XMLID_2364_"><defs><circle cx="68.7" cy="69.6" id="XMLID_2437_" r="66.2"/></defs><clipPath id="XMLID_39_"><use style="overflow:visible;" xlink:href="#XMLID_2437_"/></clipPath><polygon class="st1" id="XMLID_2648_" points="95,30.5 144.5,65.6 134,135.8 89,135.8 40.7,105.3 44.7,57 91.5,41.7    "/></g></g><g id="XMLID_1837_"><rect class="st2" height="72.6" id="XMLID_2685_" width="56.8" x="40.7" y="32.6"/><polygon class="st3" id="XMLID_2684_" points="43,95.3 50.9,103.2 43,103.2   "/><polygon class="st4" id="XMLID_2680_" points="43,30.5 95,30.5 95,103.2 50.9,103.2 43,95.3   "/><polygon class="st5" id="XMLID_2677_" points="43,95.3 50.9,95.3 50.9,103.2   "/><path class="st6" d="M58.5,55.1c-5.8,5.8-5.8,15.1,0,20.9c5.8,5.8,15.1,5.8,20.9,0c5.8-5.8,5.8-15.1,0-20.9    S64.3,49.4,58.5,55.1z M73.2,69.8c-2.3,2.3-5.9,2.3-8.3,0.1c0,0-0.1-0.1-0.1-0.1c-2.3-2.3-2.3-6.1,0-8.4c2.3-2.3,6.1-2.3,8.4,0    C75.5,63.7,75.5,67.5,73.2,69.8z" id="XMLID_2669_"/><path class="st7" d="M64.8,61.4l-6.2-6.2c0,0,7-7.7,17.1-2.8c0,0,6.7,2.9,7.9,10.8h-9.1c0,0-1.5-3.9-5.9-3.5    C68.5,59.7,66.6,59.6,64.8,61.4z" id="XMLID_2662_"/><path class="st2" d="M74.4,63.2c0,0,1.7,3.6-1.2,6.6l6.2,6.2c0,0,5.5-4.9,4.1-12.9" id="XMLID_2658_"/><path class="st2" d="M72.7,28.2c0-0.1,0-0.2,0-0.3c0-2.1-1.7-3.7-3.7-3.7c-2.1,0-3.7,1.7-3.7,3.7    c0,0.1,0,0.2,0,0.3H57v4.7h23.8v-4.7H72.7z M69,27.8c-0.7,0-1.2-0.5-1.2-1.2c0-0.7,0.5-1.2,1.2-1.2c0.7,0,1.2,0.5,1.2,1.2    C70.2,27.3,69.6,27.8,69,27.8z" id="XMLID_2654_"/></g></g></svg>